<svg width="1600" height="1000" viewBox="0 0 1600 1000" fill="none" xmlns="http://www.w3.org/2000/svg">
  <rect width="1600" height="1000" rx="40" fill="#07101B"/>
  <circle cx="800" cy="500" r="256" fill="#111A2B" stroke="rgba(255,255,255,.09)"/>
  <circle cx="800" cy="500" r="172" fill="none" stroke="rgba(255,255,255,.08)"/>
  <circle cx="800" cy="500" r="88" fill="#0E1727"/>
  <circle cx="800" cy="500" r="64" fill="#4EA1FF" fill-opacity=".24" stroke="#69D6FF" stroke-width="6"/>
  <circle cx="800" cy="244" r="56" fill="#111A2B" stroke="rgba(255,255,255,.12)"/>
  <circle cx="1040" cy="356" r="56" fill="#111A2B" stroke="rgba(255,255,255,.12)"/>
  <circle cx="1096" cy="612" r="56" fill="#111A2B" stroke="rgba(255,255,255,.12)"/>
  <circle cx="800" cy="756" r="56" fill="#111A2B" stroke="rgba(255,255,255,.12)"/>
  <circle cx="504" cy="612" r="56" fill="#111A2B" stroke="rgba(255,255,255,.12)"/>
  <circle cx="560" cy="356" r="56" fill="#111A2B" stroke="#4EA1FF" stroke-width="8"/>
  <circle cx="800" cy="244" r="20" fill="#EAF1FF" fill-opacity=".18"/>
  <circle cx="1040" cy="356" r="20" fill="#EAF1FF" fill-opacity=".18"/>
  <circle cx="1096" cy="612" r="20" fill="#EAF1FF" fill-opacity=".18"/>
  <circle cx="800" cy="756" r="20" fill="#EAF1FF" fill-opacity=".18"/>
  <circle cx="504" cy="612" r="20" fill="#EAF1FF" fill-opacity=".18"/>
  <circle cx="560" cy="356" r="20" fill="#69D6FF"/>
  <rect x="664" y="464" width="272" height="72" rx="36" fill="#152233"/>
  <rect x="714" y="489" width="172" height="22" rx="11" fill="#EAF1FF" fill-opacity=".22"/>
  <circle cx="228" cy="170" r="150" fill="#4EA1FF" fill-opacity=".1"/>
  <circle cx="1372" cy="824" r="170" fill="#69D6FF" fill-opacity=".08"/>
</svg>

